<mxfile host="app.diagrams.net" modified="2024-05-07T05:20:35.572Z" agent="Mozilla/5.0 (Macintosh; Intel Mac OS X 10_15_7) AppleWebKit/605.1.15 (KHTML, like Gecko) Version/16.4 Safari/605.1.15" etag="i4cHw3Et0PIxAWwx3pjD" version="24.3.1" type="github">
  <diagram name="Page-1" id="tMpC0LhPOoGcTv_hHfYI">
    <mxGraphModel dx="2043" dy="809" grid="1" gridSize="10" guides="1" tooltips="1" connect="1" arrows="1" fold="1" page="1" pageScale="1" pageWidth="850" pageHeight="1100" math="0" shadow="0">
      <root>
        <mxCell id="0" />
        <mxCell id="1" parent="0" />
        <mxCell id="NSehEJJ4nhmmulNn3Ske-30" value="&lt;font style=&quot;font-size: 16px;&quot;&gt;Data Explorer&lt;/font&gt;&lt;div&gt;&lt;i&gt;(Analysis tool)&lt;/i&gt;&lt;/div&gt;&lt;div&gt;&lt;span style=&quot;font-weight: normal;&quot;&gt;Architecture to post-process, explore and export results data.&lt;/span&gt;&lt;/div&gt;" style="rounded=1;whiteSpace=wrap;html=1;fillColor=#d5e8d4;strokeColor=#82b366;fontSize=14;fontStyle=1" vertex="1" parent="1">
          <mxGeometry x="740" y="550" width="220" height="110" as="geometry" />
        </mxCell>
        <mxCell id="NSehEJJ4nhmmulNn3Ske-41" value="" style="endArrow=classic;html=1;rounded=0;exitX=0;exitY=1;exitDx=0;exitDy=0;entryX=1;entryY=0;entryDx=0;entryDy=0;" edge="1" parent="1" source="NSehEJJ4nhmmulNn3Ske-30" target="NSehEJJ4nhmmulNn3Ske-50">
          <mxGeometry width="50" height="50" relative="1" as="geometry">
            <mxPoint x="455" y="370" as="sourcePoint" />
            <mxPoint x="525" y="680" as="targetPoint" />
          </mxGeometry>
        </mxCell>
        <mxCell id="NSehEJJ4nhmmulNn3Ske-45" value="" style="endArrow=classic;html=1;rounded=0;entryX=0;entryY=0;entryDx=0;entryDy=0;exitX=1;exitY=1;exitDx=0;exitDy=0;" edge="1" parent="1" source="NSehEJJ4nhmmulNn3Ske-51" target="NSehEJJ4nhmmulNn3Ske-50">
          <mxGeometry width="50" height="50" relative="1" as="geometry">
            <mxPoint x="340" y="560" as="sourcePoint" />
            <mxPoint x="405" y="680" as="targetPoint" />
          </mxGeometry>
        </mxCell>
        <mxCell id="NSehEJJ4nhmmulNn3Ske-48" value="" style="endArrow=classic;html=1;rounded=0;entryX=0;entryY=0;entryDx=0;entryDy=0;exitX=0.976;exitY=1.015;exitDx=0;exitDy=0;exitPerimeter=0;" edge="1" parent="1" source="NSehEJJ4nhmmulNn3Ske-49" target="NSehEJJ4nhmmulNn3Ske-30">
          <mxGeometry width="50" height="50" relative="1" as="geometry">
            <mxPoint x="540" y="360" as="sourcePoint" />
            <mxPoint x="500" y="420" as="targetPoint" />
          </mxGeometry>
        </mxCell>
        <mxCell id="NSehEJJ4nhmmulNn3Ske-49" value="&lt;div&gt;&lt;font size=&quot;3&quot;&gt;UI&lt;/font&gt;&lt;/div&gt;&lt;div&gt;&lt;i&gt;(Interactive software component)&lt;/i&gt;&lt;/div&gt;&lt;div&gt;&lt;span style=&quot;font-weight: normal;&quot;&gt;Architecture to interactively prompt user for inputs and display outputs.&lt;/span&gt;&lt;/div&gt;" style="rounded=1;whiteSpace=wrap;html=1;fillColor=#ffe6cc;strokeColor=#d79b00;fontSize=14;fontStyle=1" vertex="1" parent="1">
          <mxGeometry x="305" y="330" width="240" height="110" as="geometry" />
        </mxCell>
        <mxCell id="NSehEJJ4nhmmulNn3Ske-50" value="&lt;div&gt;&lt;font size=&quot;3&quot;&gt;Results Data Store&lt;/font&gt;&lt;/div&gt;&lt;div&gt;&lt;i&gt;(Data management system)&lt;/i&gt;&lt;/div&gt;&lt;div&gt;&lt;span style=&quot;font-weight: normal;&quot;&gt;Storage for results data, as well as backup support and data model update features.&lt;/span&gt;&lt;br&gt;&lt;/div&gt;" style="rounded=1;whiteSpace=wrap;html=1;fillColor=#ffe6cc;strokeColor=#d79b00;fontSize=14;fontStyle=1" vertex="1" parent="1">
          <mxGeometry x="280" y="870" width="290" height="110" as="geometry" />
        </mxCell>
        <mxCell id="NSehEJJ4nhmmulNn3Ske-51" value="&lt;div&gt;&lt;font size=&quot;3&quot;&gt;Solver Suite&lt;/font&gt;&lt;/div&gt;&lt;div&gt;&lt;i&gt;(Computational software component)&lt;/i&gt;&lt;/div&gt;&lt;div&gt;&lt;span style=&quot;font-weight: normal;&quot;&gt;Architecture to encode problem instances, run experiments and &lt;/span&gt;&lt;span style=&quot;font-weight: 400;&quot;&gt;log results.&lt;/span&gt;&lt;/div&gt;" style="rounded=1;whiteSpace=wrap;html=1;fillColor=#ffe6cc;strokeColor=#d79b00;fontSize=14;fontStyle=1" vertex="1" parent="1">
          <mxGeometry x="-130" y="550" width="270" height="110" as="geometry" />
        </mxCell>
        <mxCell id="NSehEJJ4nhmmulNn3Ske-52" value="Passes user query specifications interactively,&amp;nbsp;&lt;div&gt;and receives analysis outputs.&lt;/div&gt;" style="text;html=1;align=left;verticalAlign=middle;resizable=0;points=[];autosize=1;strokeColor=none;fillColor=none;fontSize=14;fontStyle=3" vertex="1" parent="1">
          <mxGeometry x="650" y="430" width="310" height="50" as="geometry" />
        </mxCell>
        <mxCell id="NSehEJJ4nhmmulNn3Ske-53" value="Updates post-processing columns,&amp;nbsp;&lt;div&gt;and retrieves data for analysis.&lt;/div&gt;" style="text;html=1;align=left;verticalAlign=middle;resizable=0;points=[];autosize=1;strokeColor=none;fillColor=none;fontSize=14;fontStyle=3" vertex="1" parent="1">
          <mxGeometry x="680" y="760" width="240" height="50" as="geometry" />
        </mxCell>
        <mxCell id="NSehEJJ4nhmmulNn3Ske-54" value="Appends experiment results." style="text;html=1;align=left;verticalAlign=middle;resizable=0;points=[];autosize=1;strokeColor=none;fillColor=none;fontSize=14;fontStyle=3" vertex="1" parent="1">
          <mxGeometry x="-10" y="780" width="200" height="30" as="geometry" />
        </mxCell>
        <mxCell id="NSehEJJ4nhmmulNn3Ske-55" value="" style="endArrow=classic;html=1;rounded=0;entryX=1;entryY=0;entryDx=0;entryDy=0;exitX=0;exitY=1;exitDx=0;exitDy=0;" edge="1" parent="1" source="NSehEJJ4nhmmulNn3Ske-49" target="NSehEJJ4nhmmulNn3Ske-51">
          <mxGeometry width="50" height="50" relative="1" as="geometry">
            <mxPoint x="569" y="362" as="sourcePoint" />
            <mxPoint x="620" y="480" as="targetPoint" />
          </mxGeometry>
        </mxCell>
        <mxCell id="NSehEJJ4nhmmulNn3Ske-56" value="Passes all experiment configurations and requests&amp;nbsp;&lt;div&gt;experiment initialization, receives logging output.&lt;/div&gt;" style="text;html=1;align=left;verticalAlign=middle;resizable=0;points=[];autosize=1;strokeColor=none;fillColor=none;fontSize=14;fontStyle=3" vertex="1" parent="1">
          <mxGeometry x="-110" y="420" width="340" height="50" as="geometry" />
        </mxCell>
        <mxCell id="NSehEJJ4nhmmulNn3Ske-57" value="" style="ellipse;whiteSpace=wrap;html=1;strokeWidth=2;fillWeight=2;hachureGap=8;fillColor=#f8cecc;fillStyle=dots;sketch=1;strokeColor=#b85450;" vertex="1" parent="1">
          <mxGeometry x="370" y="40" width="50" height="30" as="geometry" />
        </mxCell>
        <mxCell id="NSehEJJ4nhmmulNn3Ske-58" value="" style="rounded=1;whiteSpace=wrap;html=1;strokeWidth=2;fillWeight=4;hachureGap=8;hachureAngle=45;fillColor=#fff2cc;sketch=1;strokeColor=#d6b656;" vertex="1" parent="1">
          <mxGeometry x="335" y="70" width="115" height="70" as="geometry" />
        </mxCell>
      </root>
    </mxGraphModel>
  </diagram>
</mxfile>
